<?xml version="1.0" encoding="UTF-8"?><svg xmlns="http://www.w3.org/2000/svg" width="1572.667" height="1572.667" xmlns:xlink="http://www.w3.org/1999/xlink" viewBox="0 0 1572.667 1572.667"><defs><style>.w{fill:url(#m);}.x{fill:url(#r);}.y{fill:url(#t);}.z{fill:url(#s);}.aa{fill:url(#q);}.ab{fill:url(#n);}.ac{fill:url(#h);stroke:url(#i);}.ac,.ad,.ae,.af,.ag{stroke-miterlimit:10;}.ac,.ae,.ag{stroke-width:4px;}.ah{fill:url(#v);}.ai{fill:url(#d);}.ad{fill:#faf8d9;stroke:#faf8d9;}.aj{fill:url(#u);}.ae{fill:url(#j);stroke:url(#k);}.af{fill:#22314e;}.af,.ag{stroke:#000;}</style><linearGradient id="d" x1="794.6" y1="1439.389" x2="794.6" y2="958.333" gradientUnits="userSpaceOnUse"><stop offset="0" stop-color="#914029"/><stop offset=".3" stop-color="#873d2c"/><stop offset=".797" stop-color="#6e3835"/><stop offset=".984" stop-color="#63363a"/></linearGradient><linearGradient id="h" x1="784.556" y1="728.321" x2="1001.565" y2="728.321" gradientTransform="translate(1568.111) rotate(-180) scale(1 -1)" gradientUnits="userSpaceOnUse"><stop offset="0" stop-color="#262626"/><stop offset="1" stop-color="#000017"/></linearGradient><linearGradient id="i" x1="782.556" y1="728.321" x2="1003.565" y2="728.321" gradientTransform="translate(1568.111) rotate(-180) scale(1 -1)" gradientUnits="userSpaceOnUse"><stop offset="0" stop-color="#262626"/><stop offset="1" stop-color="#000030"/></linearGradient><linearGradient id="j" gradientTransform="matrix(1, 0, 0, 1, 0, 0)" xlink:href="#h"/><linearGradient id="k" gradientTransform="matrix(1, 0, 0, 1, 0, 0)" xlink:href="#i"/><linearGradient id="m" x1="904.333" y1="1007.521" x2="904.333" y2="909.096" gradientTransform="translate(1580.778) rotate(-180) scale(1 -1)" gradientUnits="userSpaceOnUse"><stop offset="0" stop-color="#914029"/><stop offset=".3" stop-color="#873d2c"/><stop offset=".797" stop-color="#6e3835"/><stop offset=".984" stop-color="#63363a"/></linearGradient><linearGradient id="n" x1="904.333" y1="1007.521" x2="904.333" y2="909.096" gradientTransform="matrix(1, 0, 0, 1, 0, 0)" xlink:href="#m"/><linearGradient id="q" x1="570.001" y1="514.5" x2="786.156" y2="514.5" gradientUnits="userSpaceOnUse"><stop offset="0" stop-color="#ff6f00"/><stop offset=".22" stop-color="#ff7800"/><stop offset=".587" stop-color="#ff9100"/><stop offset=".968" stop-color="#ffb300"/></linearGradient><linearGradient id="r" x1="480.781" y1="328.035" x2="1091.531" y2="328.035" xlink:href="#q"/><linearGradient id="s" x1="784.556" y1="514.5" x2="1000.711" y2="514.5" xlink:href="#q"/><linearGradient id="t" x1="1029.176" y1="433.031" x2="1045.056" y2="433.031" xlink:href="#q"/><linearGradient id="u" x1="1024.766" y1="513.006" x2="1061.558" y2="513.006" xlink:href="#q"/><linearGradient id="v" x1="1024.883" y1="547.406" x2="1061.558" y2="547.406" gradientUnits="userSpaceOnUse"><stop offset="0" stop-color="#ff6f00"/><stop offset=".22" stop-color="#ff7800"/><stop offset=".587" stop-color="#ff9100"/><stop offset=".968" stop-color="#ffb300"/></linearGradient></defs><g id="a"><circle class="af" cx="786.333" cy="786.333" r="785.833"/></g><g id="c"><path class="ai" d="m602.13,958.333s-40.387,52.952-35.9,123.854c0,0,9.872,80.774,34.105,92.442,0,0,8.975-30.515,17.052-33.207,0,0-11.667,142.701,33.207,173.216,0,0-2.144-40.238,17.052-49.362,0,0,15.257,150.779,77.184,163.343,0,0-18.199-56.093,11.667-69.107,0,0-.897,54.747,45.772,79.877,0,0,.05-65.268,26.925-78.082,0,0,21.54,30.515,12.565,50.26,0,0,75.389-105.904,52.055-140.009,0,0,38.592,26.027,29.617,39.49s76.287-102.314,50.26-156.164c0,0,32.31,3.59,33.357,38.592,0,0,18.698-64.619,16.005-108.596,0,0,2.692-82.569-48.465-126.546"/></g><g id="e"><g id="f"><path class="ad" d="m1034.069,691.833c0,24.755-15,60-6.432,80.323,12.74,30.22,16.432,71.677-3.568,93.677-27.316,30.047-108,12-109,56-1.334,58.686-75.737,42-130.014,42h0c-54.277,0-128.666,16.686-130-42-1-44-81.684-25.953-109-56-20-22-16.308-63.457-3.568-93.677,8.568-20.323-6.432-55.568-6.432-80.323,0-56.709,18.882-109.008,50.701-150.953,45.652-60.18,118.214-27.874,199.577-27.874,84.266,0,157.773-29.481,202.482,34.4,28.547,40.788,45.241,90.623,45.241,144.428"/></g></g><g id="g"><path class="ac" d="m783.274,670.33c-3.921-2.284-50.059-26.336-214.042.106-.239.039-.429.215-.475.453-.62,3.205-4.693,25.178.076,26.278.722.167,5.82,1.132,12.944,7.052,3.022,2.511,5.614,5.905,6.585,10.487.017.082.017.167-.002.249-.835,3.556-18.932,84.687,68.651,83.546,89.498-1.166,97.98-32.134,100.263-83.586l.029-.151c.441-1.223,6.824-17.908,25.585-15.039.349.053.668-.209.668-.561v-28.338c0-.205-.104-.391-.281-.495Z"/><path class="ae" d="m784.837,670.33c3.921-2.284,50.059-26.336,214.042.106.239.039.429.215.475.453.62,3.205,4.693,25.178-.076,26.278-.722.167-5.82,1.132-12.944,7.052-3.022,2.511-5.614,5.905-6.585,10.487-.017.082-.017.167.002.249.835,3.556,18.932,84.687-68.651,83.546-89.498-1.166-97.98-32.134-100.263-83.586l-.029-.151c-.441-1.223-6.824-17.908-25.585-15.039-.349.053-.668-.209-.668-.561v-28.338c0-.205.104-.391.281-.495Z"/></g><g id="l"><path class="w" d="m794.444,924.026s-53-42.693-137,16.307c0,0-69,24-99,2,0,0,12.118,46.039,54,60,69,23,180-37.803,181-40"/><path class="ab" d="m786.333,924.026s53-42.693,137,16.307c0,0,69,24,99,2,0,0-12.118,46.039-54,60-69,23-180-37.803-181-40"/></g><g id="o"><path class="ag" d="m783.556,783.518c0-.077-.083-.124-.144-.078-3.021,2.257-52.276,39.624-33.856,62.893,5.935,7.497,11.495,11.094,14.943,14.297,19.057,17.703,19.057-14.297,19.057-14.297v-62.815Z"/><path class="ag" d="m784.556,783.518c0-.077.083-.124.144-.078,3.021,2.257,52.276,39.624,33.856,62.893-5.935,7.497-11.495,11.094-14.943,14.297-19.057,17.703-19.057-14.297-19.057-14.297v-62.815Z"/></g><g id="p"><path class="aa" d="m784.955,616.5s-100.636-106.347-214.955-52.106c0,0,61.819-88.933,42.61-151.894l173.545,91.952-1.201,112.048Z"/><polygon class="x" points="784.686 484.903 480.781 327.886 784.556 171.167 1091.531 326.845 784.686 484.903"/><path class="z" d="m784.955,616.5s101.437-106.347,215.755-52.106c0,0-61.819-88.933-42.61-151.894l-173.545,91.952.4,112.048Z"/><polyline class="y" points="1045.056 510.018 1034.844 356.045 1029.176 358.964 1038.953 510.018"/><path class="aj" d="m1033.757,504.217c-10.255.077-8.817,8.779-8.817,8.779,0,0-2.885,10.697,14.906,9.095,0,0,12.341,1.123,19.834-5.008,7.493-6.131-9.688-15.514-11.996-12.866"/><path class="ah" d="m1031.94,519.577s-9.405,36.989-6.5,41.77c2.905,4.781,11.079,15.68,20.616,13.636,9.536-2.044,15.503-13.636,15.503-13.636,0,0-1.929-35.189-7.013-41.77"/></g></svg>